<svg xmlns="http://www.w3.org/2000/svg"  viewBox="0 0 50 50" width="100px" height="100px"><path d="M 26.455078 1.6074219 C 26.267738 1.5966943 26.066718 1.623977 25.888672 1.7128906 C 25.531918 1.8910483 25.394301 2.1654892 25.326172 2.3359375 C 25.189914 2.6768341 25.220703 2.8925781 25.220703 2.8925781 A 1.0001 1.0001 0 0 0 25.232422 3.0449219 C 25.757396 6.4562895 25.673396 10.021304 24.496094 12.972656 C 23.400294 15.719693 21.355172 17.932942 17.841797 19.261719 C 16.794531 17.467952 16.228516 14.613924 16.228516 13.613281 C 16.228516 13.295224 16.066481 12.943194 15.871094 12.748047 C 15.675706 12.552899 15.485505 12.476229 15.339844 12.427734 C 15.04852 12.330744 14.820313 12.341797 14.820312 12.341797 A 1.0001 1.0001 0 0 0 14.324219 12.474609 C 9.2270345 15.388055 5 21.720076 5 28.271484 C 5 33.583207 6.7765134 38.523991 10.193359 42.138672 C 13.610206 45.753352 18.659661 48 25 48 C 36.786076 48 45 38.706016 45 28.40625 C 45 14.778779 35.452013 5.9157961 26.941406 1.7285156 C 26.941406 1.7285156 26.939453 1.7285156 26.939453 1.7285156 C 26.816078 1.6668873 26.642418 1.6181494 26.455078 1.6074219 z M 27.208984 2.7402344 L 27.220703 2.8925781 C 27.220703 2.8925781 27.21855 2.906053 27.21875 2.90625 C 27.21065 2.851777 27.217384 2.7945968 27.208984 2.7402344 z M 27.291016 4.2929688 C 34.983003 8.463133 43 16.360943 43 28.40625 C 43 37.650484 35.741924 46 25 46 C 19.126339 46 14.676138 43.970694 11.646484 40.765625 C 8.6168311 37.560556 7 33.138762 7 28.271484 C 7 23.016973 10.402558 17.687914 14.40625 14.919922 C 14.581027 16.695401 15.05226 19.074551 16.457031 20.990234 A 1.0001 1.0001 0 0 0 16.554688 21.103516 L 16.689453 21.240234 A 1.0001 1.0001 0 0 0 17.703125 21.488281 C 22.229325 20.051544 24.986318 17.140289 26.353516 13.712891 C 27.530094 10.763353 27.615305 7.4791317 27.291016 4.2929688 z"/></svg>